# xmcd
#
# Track frame offsets:
#	150
#	15322
#	29702
#	44935
#	65904
#	78631
#	93917
#	110258
#	121313
#	134701
#
# Disc length: 1989 seconds
#
# Revision: 0
# Processed by: cddbd v1.4PL0 Copyright (c) Steve Scherf et al.
# Submitted via: dBpowerAMP V4.0
#
DISCID=9107c30a
DTITLE=Artistes Variés - Portrait Country
DYEAR=1900
DGENRE=Country
TTITLE0=01-J'suis Prêt Mais J'Attends
TTITLE1=02-Mon Grand Amour
TTITLE2=03-Rhinestone Cowboy
TTITLE3=04-300 Miles De Distance
TTITLE4=05-Follow Me
TTITLE5=06-La Prison
TTITLE6=07-Une Fleur Pour Vous
TTITLE7=08-Walk Tall
TTITLE8=09-Dans Tes Bras
TTITLE9=10-Je Reviens D'Un Long Voyage
EXTD=
EXTT0=
EXTT1=
EXTT2=
EXTT3=
EXTT4=
EXTT5=
EXTT6=
EXTT7=
EXTT8=
EXTT9=
PLAYORDER=
